<svg version="1.1" id="Layer_1" xmlns="http://www.w3.org/2000/svg" x="0" y="0" viewBox="0 0 2500 713.7" style="enable-background:new 0 0 2500 713.7" xml:space="preserve"><style>.st0{fill:#241c32}</style><g id="g101"><path id="path935" class="st0" d="M2196.9 327.6V153.1h121.4v174.4H2500v116.3h-181.7v174h-121.4v-174h-182.2V327.6h182.2z"/><path id="path11" class="st0" d="M1654.8 200.7h76.4c46 0 75.4 23.8 75.4 65.3 0 45.2-29.4 74.6-75.4 74.6h-76.4V200.7zm131.5 230.9c79.1-10.1 144.4-78.1 144.4-164.6 0-112.2-76.4-173.8-199.5-173.8h-198.7V658h122.4V431.6l151.8 226.2h141.6l-162-226.2z"/><path id="polygon13" class="st0" d="M797.5 204.4V93.1H424.9v111.3h124.2v453.4h124.3V204.4z"/><path id="path15" class="st0" d="M195 301c-36.8-16.6-50.7-34.9-50.7-58.8 0-27.7 23-50.7 59.8-49.7 32.1.8 57.1 18.3 74.6 59.8l105.8-47C355.2 130 295.4 85.9 198.9 85.9c-102.1 0-177.5 67.2-177.5 157.2 0 61.6 30.4 110.3 102.1 146.3l79.1 39.6c44 22.2 65.3 38.6 65.3 70.7 0 34.9-28.4 59.8-65.3 59.8-39.6 0-75.4-22.2-92-71.7L0 520c25.7 93 102.1 147.3 201.5 147.3 107.6 0 190.4-69 190.4-168.3 0-76.4-41.3-127-120.6-162.7L195 301z"/><linearGradient id="path3144-6_1_" gradientUnits="userSpaceOnUse" x1="943.107" y1="1052.768" x2="1476.486" y2="519.879" gradientTransform="translate(-67.73 -354.317) scale(.9857)"><stop offset=".28" style="stop-color:#fa1660"/><stop offset=".78" style="stop-color:#ff7d17"/></linearGradient><path id="path3144-6" d="M1499.3 272.4h-286.6L1124 0l-88.7 272.4H748.8l229.9 168.7s112.4-74 248.6-101.9c-200.9 148.3-310 295.4-310 295.4l-25.1 79.1L1124 545.4l231.9 168.3-88.5-272.6 231.9-168.7z" style="fill:url(#path3144-6_1_)"/></g></svg>